<svg xmlns="http://www.w3.org/2000/svg" width="500" height="500" preserveAspectRatio="none" style="display:block" viewBox="0 0 2000 2000"><defs><linearGradient id="c" x1="952.963" x2="1003.04" y1="936.225" y2="946.687" gradientUnits="userSpaceOnUse"><stop class="stop0" offset="0" stop-color="#14677C"/><stop class="stop1" offset="1" stop-color="#1F8392"/></linearGradient><linearGradient id="b" x1="1185.48" x2="998.897" y1="948.372" y2="1118.21" gradientUnits="userSpaceOnUse"><stop class="stop0" offset="0" stop-color="#37BAA9"/><stop class="stop1" offset="1" stop-color="#2E91AF"/></linearGradient><linearGradient id="a" x1="648.147" x2="993.911" y1="1034.12" y2="741.457" gradientUnits="userSpaceOnUse"><stop class="stop0" offset="0" stop-color="#212771"/><stop class="stop1" offset="1" stop-color="#1F74A4"/></linearGradient></defs><path fill="url(#a)" d="M804.619 1045.41c7.3-17.01 13.545-34.13 20.545-51.19l37.478-90.721c8.1-20.027 18.926-50.276 28.527-68.553 3.816-7.385 8.708-14.161 14.517-20.107 25.77-26.241 55.033-26.354 89.309-26.28 14.905.096 29.805.065 44.705-.093-14.15 9.675-21.83 16.157-32.38 30.278-6.35 13.991-12.866 27.845-19.487 41.714-13.586 28.462-24.29 58.538-38.306 86.78-1.511 5.223-4.443 11.603-6.702 16.645-12.564 28.052-24.224 58.527-39.083 85.437-3.586 16.81-36.96 89.59-45.897 108.52-8.442 13.28-24.832 21.73-39.598 23.93-64.468 9.58-74.25-37.46-93.3-81.61-25.83-58.83-50.931-117.977-75.298-177.427-8.13-19.244-16.372-38.441-24.727-57.589-15.834-36.399-20.759-52.89-54.993-75.785 32.838 2.855 74.393-3.501 104.569 6.131 43.388 13.849 57.805 71.143 72.901 108.937l28.34 69.012c9.705 24.177 18.507 47.871 28.88 71.971z"/><path fill="#4E81AB" d="m912.325 898.802 63.904-57.527c6.628-5.851 23.046-22.327 31.091-22.531-6.35 13.991-12.866 27.845-19.487 41.714-13.586 28.462-24.29 58.538-38.306 86.78-.479-1.7-.353-3.287-.46-5.045-4.727-1.923-30.996-2.387-37.461-2.254-.854-9.281 1.225-18.667-.928-26.314.303-5.683.788-9.244 1.647-14.823z"/><path fill="#3A73A0" d="m903.742 1049.32-3.061-2.99c1.279-27.71 4.234-56.214 6.526-83.931 1.332-16.117 1.939-32.969 3.471-48.774 2.153 7.647.074 17.033.928 26.314 6.465-.133 32.734.331 37.461 2.254.107 1.758-.019 3.345.46 5.045-1.511 5.223-4.443 11.603-6.702 16.645-12.564 28.052-24.224 58.527-39.083 85.437z"/><path fill="url(#b)" d="M1021.29 830.876c4.36-6.57 9.04-12.507 14.7-17.985.1 5.03-.14 10.349-.27 15.399.5 46.236.66 92.474.48 138.712.01 16.627-.29 34.218-.16 50.328.41 48.98 26.94 87.51 78.83 87.77 19.07.09 40.93-10.02 53.94-23.57 4.06-5.03 10.4-19.47 15.63-21.49 25.26-9.77 55.43-17.04 82.55-19.19 8.84-.7 16.48-1.05 24.67-2.62l1.5-.3c-.44 7.29-.99 14.56-1.65 21.83-1.08 5.13-2.13 10.29-3.29 15.4-22.2 97.47-101.47 127.63-192.05 124.3-69.26-2.79-133.104-38.94-154.91-107.48-1.387-4.36-2.578-8.8-3.778-13.21-1.677-7.84-3.349-14.75-3.853-22.8-1.756-5.37-2.157-25.71-.186-31.2 2.379-6.63 6.669-15.82 9.581-22.48 7.369-16.877 14.862-33.703 22.478-50.473l34.426-77.82c4.332-9.805 8.852-21.495 13.472-30.92 2.13-4.368 4.78-8.465 7.89-12.201z"/><path fill="#5BABBE" d="M933.629 1055.97c4.111 1.29 4.833 1.9 8.561 4.24l.016.6c7.662 1.66 60.574 30.24 69.134 36.91 8.13 6.33 23.8 24.02 31.55 32.51l48.96 53.38c3.25 3.58 10.65 9.77 11.37 13.95-1.37 1.69-4.16 1.46-7.05 1.9-69.26-2.79-133.104-38.94-154.91-107.48-1.387-4.36-2.578-8.8-3.778-13.21-1.677-7.84-3.349-14.75-3.853-22.8z"/><path fill="#4E81AB" d="M933.629 1055.97c4.111 1.29 4.833 1.9 8.561 4.24l.016.6c-.962 8.17-.636 10.76-4.724 17.96-1.677-7.84-3.349-14.75-3.853-22.8z"/><path fill="url(#c)" d="M1021.29 830.876c4.36-6.57 9.04-12.507 14.7-17.985.1 5.03-.14 10.349-.27 15.399-6.35 2.179-6.19 2.869-8.15 9.223-1 7.914-18.65 44.088-22.69 55.774-12.73 36.788-29.098 72.747-42.498 109.553-4.115 11.31-15.267 48.49-20.192 57.37-3.728-2.34-4.45-2.95-8.561-4.24-1.756-5.37-2.157-25.71-.186-31.2 2.379-6.63 6.669-15.82 9.581-22.48 7.369-16.877 14.862-33.703 22.478-50.473l34.426-77.82c4.332-9.805 8.852-21.495 13.472-30.92 2.13-4.368 4.78-8.465 7.89-12.201z"/><path fill="#208C8A" d="M1021.29 830.876c4.36-6.57 9.04-12.507 14.7-17.985.1 5.03-.14 10.349-.27 15.399-6.35 2.179-6.19 2.869-8.15 9.223-.32-2.207-.03-5.606-.2-8.19-2.8-.901-2.47-.236-6.08 1.553zm147.52 250.654c4.06-5.03 10.4-19.47 15.63-21.49 25.26-9.77 55.43-17.04 82.55-19.19 8.84-.7 16.48-1.05 24.67-2.62l1.5-.3c-.44 7.29-.99 14.56-1.65 21.83-26.84.22-46.86 1.63-73.59 7.91-13.09 3.08-37.86 13.81-49.11 13.86z"/><path fill="#3FBAA8" d="M1238.71 753.711c12-2.722 40.76-14.492 51.54-10.352 2.57 3.512.43 20.871.42 26.579-.02 14.255.56 28.652.15 42.874-9.83 13.698-21.55 25.944-31.64 39.501-15.89 21.381-29.35 44.561-42.58 67.659-5.75 10.047-26.64 57.611-30.56 61.557l-1.1-.362c-.59-5.573-.26-9.309.01-14.859-.98-15.829-.53-35.968-.56-52.12l.67-112.089c.96-18.297.94-40.533.62-59.055 20.44.075 34.62 1.836 53.03 10.667z"/><path fill="#5CC6B7" d="M1185.06 802.099c12.58 9.882 34.98 30.302 47.01 41.929l-25.87 69.41c-4.41 12.177-8.4 25.455-13.38 37.163-4.09 9.606 1.49 17.723-4.99 25.038l-1.47.513c.15-4.566.23-5.62-1.41-9.844-.98-15.829-.53-35.968-.56-52.12l.67-112.089z"/><path fill="#3FBAA8" d="M1346.38 781.962c11.23 6.423 16.16 12.045 25.21 21.204 12.84 12.13 27.34 28.11 39.8 39.22-8.6 6.922-27.29 14.984-37.94 21-5.4 3.045-19.87 12.531-24.4 14.702-3.48 2.979-13.61 9.541-17.71 11.387-2.48 2.66-11.2 8.641-14.67 11.066-42.62 29.768-78.25 68.472-114.27 105.649-6.8 7.02-12.4 16.81-19.52 24.45l-.97 1.04c12.6-34.603 29.96-76.875 48.35-108.699 21.6-37.39 79.51-118.846 116.12-141.019z"/><path fill="#76D3BF" d="M1371.59 803.166c12.84 12.13 27.34 28.11 39.8 39.22-8.6 6.922-27.29 14.984-37.94 21-5.4 3.045-19.87 12.531-24.4 14.702l-1.82-.399c-2.78 1.432-4.94 2.262-7.97 1.037-.88-3.985.64-10.769 1.32-15.082 9.44-19.775 19.71-41.892 31.01-60.478z"/><path fill="#5CC6B7" d="M1331.34 889.475c1-2.618.87-2.043 3.06-4.08l.65-.593c-.54-9.613-2.05-13.435 5.53-21.158-.68 4.313-2.2 11.097-1.32 15.082 3.03 1.225 5.19.395 7.97-1.037l1.82.399c-3.48 2.979-13.61 9.541-17.71 11.387z"/><path fill="#3FBAA8" d="M1429.36 880.75c9.26 11.052 33.88 54.432 41.17 68.42 2.17 3.494 2.7 2.952 2.13 5.986-4.28 3.186-14.18 1.376-19.9.92-13.79.528-31.07.848-44.53 2.269-55.08 5.811-109.16 22.714-159.42 45.595-11.47 5.23-31.06 14.18-41.34 20.5l-4.82 2.91-4.06-2.96c47.49-49.417 103.74-89.595 165.89-118.489 14.04-6.315 28.34-12.043 42.85-17.172 8.07-2.901 14.11-4.336 22.03-7.979z"/><path fill="#76D3BF" d="M1429.36 880.75c9.26 11.052 33.88 54.432 41.17 68.42l-8.6.691c-26.42-16.093-68.25-24.425-96.51-38.481-1.1-.552-.87-4.125-.94-5.479 14.04-6.315 28.34-12.043 42.85-17.172 8.07-2.901 14.11-4.336 22.03-7.979z"/><path fill="#5CC6B7" d="M1470.53 949.17c2.17 3.494 2.7 2.952 2.13 5.986-4.28 3.186-14.18 1.376-19.9.92 5.24-1.209 7.26.035 10.32-2.804l-1.15-3.411 8.6-.691z"/><path fill="#3FBAA8" d="M1165.59 734.88c-.38-11.109-2.64-35.073 7.18-41.463 25.11-16.353 60.22-19.788 89.33-16.158 35.16 8.498 59.67 10.471 50.53 52.685-.25 1.145-.86 2.15-1.43 3.126-3.18.824-21.03-2.725-31.5-1.837-13.46 2.266-25.8 5.809-38.98 8.292-3.82.72-16.8-3.114-21.32-4.708-17.84-6.279-35.74-4.531-53.81.063z"/><path fill="#76D3BF" d="M1262.1 677.259c35.16 8.498 59.67 10.471 50.53 52.685-.25 1.145-.86 2.15-1.43 3.126-3.18.824-21.03-2.725-31.5-1.837-1.94-14.562-16.55-37.986-17.6-53.974z"/><path fill="#3FBAA8" d="M1128.08 694.223c-4.67-1.888-23.18-8.374-24.24-13.087 5.54-5.722 70.21-35.756 82.63-42.427 10.51-5.647 37.27-18.319 49.66-23.414 2.06-.847 4.18.299 6.33 1.034 2.73 11.463 15.15 45.621 15.12 51.667-34.77-.783-71.67-.523-97.48 26.677-.36 4.698-.13 10.105-.07 14.868-8.55-3.835-17.09-8.564-25.38-12.971 1.24 15.632 5.32 21.951 1.48 36.591 2.68 8.793 7.96 19.054 7.61 27.945-.35 8.517-17.77 7.98-21.44 3.027-5.69-7.679 2.53-23.813 5.88-30.512-7.25-14.235.51-19.436-.1-39.398z"/><path fill="#3A73A0" d="M1282.45 1010.06c40.52-9.18 77.93-9.93 119.24-6.32 27.31 2.39 50.64 9.99 76.57 18.39 11.52 11.94 11.52 23.61 19.31 35.95l-1.21 1c-6.05-.8-38.3-15.63-49.16-19.32-55.41-18.33-114.22-24.09-172.13-16.86-12.58 3.82-24.75 4.14-37.2 6.85-14.8 3.22-30.25 7.43-44.96 11.26 13.1-8.68 73.62-28.12 89.54-30.95z"/><path fill="#124B6B" d="M1192.91 1041.01c13.1-8.68 73.62-28.12 89.54-30.95-7.29 6.75-37.5 9.03-42.39 14.95l.97.87c2.95-.3 1.74.34 3.9-1.36 5.47 3.31 22.05-1.37 28.12-3.43l1.68.69.34 1.12c-12.58 3.82-24.75 4.14-37.2 6.85-14.8 3.22-30.25 7.43-44.96 11.26z"/><path fill="#76D3BF" d="M1242.46 616.329c35.62 14.803 66.04 32.236 99.85 47.072 10.95 5.586 22.64 11.176 32.89 17.877-9.83 9.799-41.28 23.377-54.76 30.194.19-3.919.86-12.123.16-15.61-14.17-17.578-41.65-24.91-63.02-27.866.03-6.046-12.39-40.204-15.12-51.667z"/><path fill="#5CC6B7" d="M1342.31 663.401c10.95 5.586 22.64 11.176 32.89 17.877-9.83 9.799-41.28 23.377-54.76 30.194.19-3.919.86-12.123.16-15.61 11.11-11.21 14.35-19.124 21.71-32.461z"/><path fill="#27937B" d="M1298.66 743.11c13.19 3.833 21.43 5.667 9.91 19.639l-12.17 6.359c.89-7.401-.49-21.819 2.26-25.998z"/><path fill="#124B6B" d="M1185.27 1036.84c2.78-3.62 9.57-8.95 13.32-12.45l4.06 2.96c-5.77 3.21-11.56 6.37-17.38 9.49z"/></svg>