<?plantuml 1.2026.1beta5?><svg xmlns="http://www.w3.org/2000/svg" xmlns:xlink="http://www.w3.org/1999/xlink" contentStyleType="text/css" data-diagram-type="CLASS" height="966px" preserveAspectRatio="none" style="width:539px;height:966px;background:#FFFFFF;" version="1.1" viewBox="0 0 539 966" width="539px" zoomAndPan="magnify"><defs/><g><!--class User--><g class="entity" data-qualified-name="User" data-source-line="5" id="ent0002"><rect fill="#F1F1F1" height="178.375" rx="2.5" ry="2.5" style="stroke:#181818;stroke-width:0.5;" width="265.5654" x="7" y="591.75"/><ellipse cx="119.5776" cy="607.75" fill="#FFAAAA" rx="11" ry="11" style="stroke:#181818;stroke-width:1;"/><path d="M120.4214,614.5 L117.9683,614.5 L117.9683,604.25 L114.8276,604.25 L114.8276,602.1094 L123.562,602.1094 L123.562,604.25 L120.4214,604.25 L120.4214,614.5 Z " fill="#000000"/><text fill="#000000" font-family="sans-serif" font-size="14" lengthAdjust="spacing" textLength="31.9102" x="140.0776" y="612.5967">User</text><line style="stroke:#181818;stroke-width:0.5;" x1="8" x2="271.5654" y1="623.75" y2="623.75"/><text fill="#000000" font-family="sans-serif" font-size="14" lengthAdjust="spacing" textLength="99.333" x="13" y="640.7451">user_id : UUID</text><text fill="#000000" font-family="sans-serif" font-size="14" lengthAdjust="spacing" textLength="82.0859" x="13" y="657.042">role : ENUM</text><text fill="#000000" font-family="sans-serif" font-size="14" lengthAdjust="spacing" textLength="151.6211" x="13" y="673.3389">department_id : UUID</text><text fill="#000000" font-family="sans-serif" font-size="14" lengthAdjust="spacing" textLength="169.4629" x="13" y="689.6357">created_at : TIMESTAMP</text><line style="stroke:#181818;stroke-width:0.5;" x1="8" x2="271.5654" y1="696.9375" y2="696.9375"/><text fill="#000000" font-family="sans-serif" font-size="14" lengthAdjust="spacing" textLength="158.3613" x="13" y="713.9326">email : VARCHAR(255)</text><text fill="#000000" font-family="sans-serif" font-size="14" lengthAdjust="spacing" textLength="227.083" x="13" y="730.2295">password_hash : VARCHAR(255)</text><text fill="#000000" font-family="sans-serif" font-size="14" lengthAdjust="spacing" textLength="188.0361" x="13" y="746.5264">full_name : VARCHAR(255)</text><text fill="#000000" font-family="sans-serif" font-size="14" lengthAdjust="spacing" textLength="253.5654" x="13" y="762.8232">registration_number : VARCHAR(50)</text></g><!--class Department--><g class="entity" data-qualified-name="Department" data-source-line="16" id="ent0003"><rect fill="#F1F1F1" height="129.4844" rx="2.5" ry="2.5" style="stroke:#181818;stroke-width:0.5;" width="261.2793" x="149.14" y="830.13"/><ellipse cx="233.1708" cy="846.13" fill="#FFAAAA" rx="11" ry="11" style="stroke:#181818;stroke-width:1;"/><path d="M234.0145,852.88 L231.5614,852.88 L231.5614,842.63 L228.4208,842.63 L228.4208,840.4894 L237.1551,840.4894 L237.1551,842.63 L234.0145,842.63 L234.0145,852.88 Z " fill="#000000"/><text fill="#000000" font-family="sans-serif" font-size="14" lengthAdjust="spacing" textLength="84.7178" x="253.6708" y="850.9767">Department</text><line style="stroke:#181818;stroke-width:0.5;" x1="150.14" x2="409.4193" y1="862.13" y2="862.13"/><text fill="#000000" font-family="sans-serif" font-size="14" lengthAdjust="spacing" textLength="151.6211" x="155.14" y="879.1251">department_id : UUID</text><text fill="#000000" font-family="sans-serif" font-size="14" lengthAdjust="spacing" textLength="194.291" x="155.14" y="895.422">head_of_department : UUID</text><text fill="#000000" font-family="sans-serif" font-size="14" lengthAdjust="spacing" textLength="142.6934" x="155.14" y="911.7189">is_active : BOOLEAN</text><line style="stroke:#181818;stroke-width:0.5;" x1="150.14" x2="409.4193" y1="919.0206" y2="919.0206"/><text fill="#000000" font-family="sans-serif" font-size="14" lengthAdjust="spacing" textLength="249.2793" x="155.14" y="936.0157">department_name : VARCHAR(255)</text><text fill="#000000" font-family="sans-serif" font-size="14" lengthAdjust="spacing" textLength="234.4316" x="155.14" y="952.3126">department_code : VARCHAR(50)</text></g><!--class Course--><g class="entity" data-qualified-name="Course" data-source-line="24" id="ent0004"><rect fill="#F1F1F1" height="129.4844" rx="2.5" ry="2.5" style="stroke:#181818;stroke-width:0.5;" width="225.2539" x="307.16" y="616.2"/><ellipse cx="391.0985" cy="632.2" fill="#FFAAAA" rx="11" ry="11" style="stroke:#181818;stroke-width:1;"/><path d="M391.9422,638.95 L389.4891,638.95 L389.4891,628.7 L386.3485,628.7 L386.3485,626.5594 L395.0829,626.5594 L395.0829,628.7 L391.9422,628.7 L391.9422,638.95 Z " fill="#000000"/><text fill="#000000" font-family="sans-serif" font-size="14" lengthAdjust="spacing" textLength="48.877" x="411.5985" y="637.0467">Course</text><line style="stroke:#181818;stroke-width:0.5;" x1="308.16" x2="531.4139" y1="648.2" y2="648.2"/><text fill="#000000" font-family="sans-serif" font-size="14" lengthAdjust="spacing" textLength="115.5957" x="313.16" y="665.1951">course_id : UUID</text><text fill="#000000" font-family="sans-serif" font-size="14" lengthAdjust="spacing" textLength="151.6211" x="313.16" y="681.492">department_id : UUID</text><text fill="#000000" font-family="sans-serif" font-size="14" lengthAdjust="spacing" textLength="161.7314" x="313.16" y="697.7889">credit_hours : INTEGER</text><line style="stroke:#181818;stroke-width:0.5;" x1="308.16" x2="531.4139" y1="705.0906" y2="705.0906"/><text fill="#000000" font-family="sans-serif" font-size="14" lengthAdjust="spacing" textLength="198.4063" x="313.16" y="722.0857">course_code : VARCHAR(50)</text><text fill="#000000" font-family="sans-serif" font-size="14" lengthAdjust="spacing" textLength="213.2539" x="313.16" y="738.3826">course_name : VARCHAR(255)</text></g><!--class Section--><g class="entity" data-qualified-name="Section" data-source-line="32" id="ent0005"><rect fill="#F1F1F1" height="113.1875" rx="2.5" ry="2.5" style="stroke:#181818;stroke-width:0.5;" width="219.9697" x="228.8" y="418.56"/><ellipse cx="308.5275" cy="434.56" fill="#FFAAAA" rx="11" ry="11" style="stroke:#181818;stroke-width:1;"/><path d="M309.3713,441.31 L306.9182,441.31 L306.9182,431.06 L303.7775,431.06 L303.7775,428.9194 L312.5119,428.9194 L312.5119,431.06 L309.3713,431.06 L309.3713,441.31 Z " fill="#000000"/><text fill="#000000" font-family="sans-serif" font-size="14" lengthAdjust="spacing" textLength="52.0146" x="329.0275" y="439.4067">Section</text><line style="stroke:#181818;stroke-width:0.5;" x1="229.8" x2="447.7697" y1="450.56" y2="450.56"/><text fill="#000000" font-family="sans-serif" font-size="14" lengthAdjust="spacing" textLength="119.2188" x="234.8" y="467.5551">section_id : UUID</text><text fill="#000000" font-family="sans-serif" font-size="14" lengthAdjust="spacing" textLength="115.5957" x="234.8" y="483.852">course_id : UUID</text><text fill="#000000" font-family="sans-serif" font-size="14" lengthAdjust="spacing" textLength="122.418" x="234.8" y="500.1489">teacher_id : UUID</text><line style="stroke:#181818;stroke-width:0.5;" x1="229.8" x2="447.7697" y1="507.4506" y2="507.4506"/><text fill="#000000" font-family="sans-serif" font-size="14" lengthAdjust="spacing" textLength="207.9697" x="234.8" y="524.4457">section_name : VARCHAR(50)</text></g><!--class AttendanceSession--><g class="entity" data-qualified-name="AttendanceSession" data-source-line="39" id="ent0006"><rect fill="#F1F1F1" height="162.0781" rx="2.5" ry="2.5" style="stroke:#181818;stroke-width:0.5;" width="230.2236" x="157.67" y="196.48"/><ellipse cx="201.5223" cy="212.48" fill="#FFAAAA" rx="11" ry="11" style="stroke:#181818;stroke-width:1;"/><path d="M202.366,219.23 L199.9129,219.23 L199.9129,208.98 L196.7723,208.98 L196.7723,206.8394 L205.5067,206.8394 L205.5067,208.98 L202.366,208.98 L202.366,219.23 Z " fill="#000000"/><text fill="#000000" font-family="sans-serif" font-size="14" lengthAdjust="spacing" textLength="134.1074" x="221.9339" y="217.3267">AttendanceSession</text><line style="stroke:#181818;stroke-width:0.5;" x1="158.67" x2="386.8936" y1="228.48" y2="228.48"/><text fill="#000000" font-family="sans-serif" font-size="14" lengthAdjust="spacing" textLength="120.6201" x="163.67" y="245.4751">session_id : UUID</text><text fill="#000000" font-family="sans-serif" font-size="14" lengthAdjust="spacing" textLength="119.2188" x="163.67" y="261.772">section_id : UUID</text><text fill="#000000" font-family="sans-serif" font-size="14" lengthAdjust="spacing" textLength="122.418" x="163.67" y="278.0689">teacher_id : UUID</text><text fill="#000000" font-family="sans-serif" font-size="14" lengthAdjust="spacing" textLength="143.0967" x="163.67" y="294.3657">qr_code_data : TEXT</text><text fill="#000000" font-family="sans-serif" font-size="14" lengthAdjust="spacing" textLength="165.9971" x="163.67" y="310.6626">start_time : TIMESTAMP</text><text fill="#000000" font-family="sans-serif" font-size="14" lengthAdjust="spacing" textLength="177.1055" x="163.67" y="326.9595">expiry_time : TIMESTAMP</text><line style="stroke:#181818;stroke-width:0.5;" x1="158.67" x2="386.8936" y1="334.2613" y2="334.2613"/><text fill="#000000" font-family="sans-serif" font-size="14" lengthAdjust="spacing" textLength="218.2236" x="163.67" y="351.2564">session_token : VARCHAR(255)</text></g><!--class AttendanceRecord--><g class="entity" data-qualified-name="AttendanceRecord" data-source-line="49" id="ent0007"><rect fill="#F1F1F1" height="129.4844" rx="2.5" ry="2.5" style="stroke:#181818;stroke-width:0.5;" width="181.4082" x="98.08" y="7"/><ellipse cx="121.8418" cy="23" fill="#FFAAAA" rx="11" ry="11" style="stroke:#181818;stroke-width:1;"/><path d="M122.6856,29.75 L120.2324,29.75 L120.2324,19.5 L117.0918,19.5 L117.0918,17.3594 L125.8262,17.3594 L125.8262,19.5 L122.6856,19.5 L122.6856,29.75 Z " fill="#000000"/><text fill="#000000" font-family="sans-serif" font-size="14" lengthAdjust="spacing" textLength="129.9375" x="137.7889" y="27.8467">AttendanceRecord</text><line style="stroke:#181818;stroke-width:0.5;" x1="99.08" x2="278.4882" y1="39" y2="39"/><text fill="#000000" font-family="sans-serif" font-size="14" lengthAdjust="spacing" textLength="114.0713" x="104.08" y="55.9951">record_id : UUID</text><text fill="#000000" font-family="sans-serif" font-size="14" lengthAdjust="spacing" textLength="120.6201" x="104.08" y="72.292">session_id : UUID</text><text fill="#000000" font-family="sans-serif" font-size="14" lengthAdjust="spacing" textLength="122.3154" x="104.08" y="88.5889">student_id : UUID</text><text fill="#000000" font-family="sans-serif" font-size="14" lengthAdjust="spacing" textLength="169.4082" x="104.08" y="104.8857">marked_at : TIMESTAMP</text><text fill="#000000" font-family="sans-serif" font-size="14" lengthAdjust="spacing" textLength="98.2803" x="104.08" y="121.1826">status : ENUM</text><line style="stroke:#181818;stroke-width:0.5;" x1="99.08" x2="278.4882" y1="128.4844" y2="128.4844"/></g><!--link User to Department--><g class="link" data-entity-1="ent0002" data-entity-2="ent0003" data-link-type="crowfoot" data-source-line="57" id="lnk8"><path codeLine="57" d="M202.7512,777.2639 C215.8712,797.1139 220.7122,804.4438 233.0122,823.0738" fill="none" id="User-Department" style="stroke:#181818;stroke-width:1;"/><line style="stroke:#181818;stroke-width:1;" x1="202.7512" x2="193.3345" y1="777.2639" y2="773.8984"/><line style="stroke:#181818;stroke-width:1;" x1="202.7512" x2="203.3455" y1="777.2639" y2="767.2816"/><line style="stroke:#181818;stroke-width:1;" x1="202.7512" x2="198.34" y1="777.2639" y2="770.59"/><line style="stroke:#181818;stroke-width:1;" x1="200.517" x2="207.191" y1="781.138" y2="776.7268"/><line style="stroke:#181818;stroke-width:1;" x1="238.5542" x2="231.878" y1="824.208" y2="828.6158"/><line style="stroke:#181818;stroke-width:1;" x1="236.9013" x2="230.2251" y1="821.7044" y2="826.1122"/><line style="stroke:#181818;stroke-width:1;" x1="233.0122" x2="237.42" y1="823.0738" y2="829.75"/></g><!--link Course to Department--><g class="link" data-entity-1="ent0004" data-entity-2="ent0003" data-link-type="crowfoot" data-source-line="58" id="lnk9"><path codeLine="58" d="M372.9897,752.7745 C355.4397,779.3345 343.9603,796.7155 326.4303,823.2455" fill="none" id="Course-Department" style="stroke:#181818;stroke-width:1;"/><line style="stroke:#181818;stroke-width:1;" x1="372.9897" x2="372.3941" y1="752.7745" y2="742.7923"/><line style="stroke:#181818;stroke-width:1;" x1="372.9897" x2="382.4059" y1="752.7745" y2="749.4077"/><line style="stroke:#181818;stroke-width:1;" x1="372.9897" x2="377.4" y1="752.7745" y2="746.1"/><line style="stroke:#181818;stroke-width:1;" x1="368.5499" x2="375.2244" y1="752.238" y2="756.6483"/><line style="stroke:#181818;stroke-width:1;" x1="327.5624" x2="320.8879" y1="828.7879" y2="824.3776"/><line style="stroke:#181818;stroke-width:1;" x1="329.2163" x2="322.5417" y1="826.2849" y2="821.8746"/><line style="stroke:#181818;stroke-width:1;" x1="326.4303" x2="322.02" y1="823.2455" y2="829.92"/></g><!--link Section to Course--><g class="link" data-entity-1="ent0005" data-entity-2="ent0004" data-link-type="crowfoot" data-source-line="59" id="lnk10"><path codeLine="59" d="M363.9768,539.5435 C374.2868,565.4635 380.6642,581.5361 391.3442,608.3961" fill="none" id="Section-Course" style="stroke:#181818;stroke-width:1;"/><line style="stroke:#181818;stroke-width:1;" x1="363.9768" x2="355.4448" y1="539.5435" y2="534.3276"/><line style="stroke:#181818;stroke-width:1;" x1="363.9768" x2="366.5952" y1="539.5435" y2="529.8924"/><line style="stroke:#181818;stroke-width:1;" x1="363.9768" x2="361.02" y1="539.5435" y2="532.11"/><line style="stroke:#181818;stroke-width:1;" x1="360.9992" x2="368.4327" y1="542.8803" y2="539.9235"/><line style="stroke:#181818;stroke-width:1;" x1="396.539" x2="389.1051" y1="610.6351" y2="613.591"/><line style="stroke:#181818;stroke-width:1;" x1="395.4306" x2="387.9967" y1="607.8474" y2="610.8033"/><line style="stroke:#181818;stroke-width:1;" x1="391.3442" x2="394.3" y1="608.3961" y2="615.83"/></g><!--link Section to User--><g class="link" data-entity-1="ent0005" data-entity-2="ent0002" data-link-type="crowfoot" data-source-line="60" id="lnk11"><path codeLine="60" d="M278.5505,537.8334 C260.6005,556.2134 251.3698,565.6769 231.6598,585.8569" fill="none" id="Section-User" style="stroke:#181818;stroke-width:1;"/><line style="stroke:#181818;stroke-width:1;" x1="278.5505" x2="279.8474" y1="537.8334" y2="527.9179"/><line style="stroke:#181818;stroke-width:1;" x1="278.5505" x2="288.4326" y1="537.8334" y2="536.3021"/><line style="stroke:#181818;stroke-width:1;" x1="278.5505" x2="284.14" y1="537.8334" y2="532.11"/><line style="stroke:#181818;stroke-width:1;" x1="274.2914" x2="280.0148" y1="536.4695" y2="542.059"/><line style="stroke:#181818;stroke-width:1;" x1="231.7265" x2="226.0034" y1="591.5134" y2="585.9235"/><line style="stroke:#181818;stroke-width:1;" x1="233.8226" x2="228.0995" y1="589.3672" y2="583.7774"/><line style="stroke:#181818;stroke-width:1;" x1="231.6598" x2="226.07" y1="585.8569" y2="591.58"/></g><!--link AttendanceSession to Section--><g class="link" data-entity-1="ent0006" data-entity-2="ent0005" data-link-type="crowfoot" data-source-line="61" id="lnk12"><path codeLine="61" d="M302.4672,366.5203 C309.1872,386.4403 311.1319,392.19 317.3619,410.65" fill="none" id="AttendanceSession-Section" style="stroke:#181818;stroke-width:1;"/><line style="stroke:#181818;stroke-width:1;" x1="302.4672" x2="294.2248" y1="366.5203" y2="360.8579"/><line style="stroke:#181818;stroke-width:1;" x1="302.4672" x2="305.5952" y1="366.5203" y2="357.0221"/><line style="stroke:#181818;stroke-width:1;" x1="302.4672" x2="299.91" y1="366.5203" y2="358.94"/><line style="stroke:#181818;stroke-width:1;" x1="299.3164" x2="306.8966" y1="369.694" y2="367.1368"/><line style="stroke:#181818;stroke-width:1;" x1="322.4309" x2="314.8509" y1="413.1609" y2="415.7191"/><line style="stroke:#181818;stroke-width:1;" x1="321.4716" x2="313.8916" y1="410.3185" y2="412.8766"/><line style="stroke:#181818;stroke-width:1;" x1="317.3619" x2="319.92" y1="410.65" y2="418.23"/></g><!--link AttendanceSession to User--><g class="link" data-entity-1="ent0006" data-entity-2="ent0002" data-link-type="crowfoot" data-source-line="62" id="lnk13"><path codeLine="62" d="M232.3135,366.1767 C223.9735,385.5267 218.72,398.94 211.78,418.56 C191.78,475.14 175.8099,532.4463 162.8399,583.4963" fill="none" id="AttendanceSession-User" style="stroke:#181818;stroke-width:1;"/><line style="stroke:#181818;stroke-width:1;" x1="232.3135" x2="229.97" y1="366.1767" y2="356.4551"/><line style="stroke:#181818;stroke-width:1;" x1="232.3135" x2="240.99" y1="366.1767" y2="361.2049"/><line style="stroke:#181818;stroke-width:1;" x1="232.3135" x2="235.48" y1="366.1767" y2="358.83"/><line style="stroke:#181818;stroke-width:1;" x1="227.8486" x2="235.1952" y1="366.4301" y2="369.5966"/><line style="stroke:#181818;stroke-width:1;" x1="165.7318" x2="157.9781" y1="588.3581" y2="586.3882"/><line style="stroke:#181818;stroke-width:1;" x1="166.4705" x2="158.7169" y1="585.4505" y2="583.4806"/><line style="stroke:#181818;stroke-width:1;" x1="162.8399" x2="160.87" y1="583.4963" y2="591.25"/></g><!--link AttendanceRecord to AttendanceSession--><g class="link" data-entity-1="ent0007" data-entity-2="ent0006" data-link-type="crowfoot" data-source-line="63" id="lnk14"><path codeLine="63" d="M218.2984,144.3364 C226.0384,163.1164 228.5012,169.1037 236.6012,188.7537" fill="none" id="AttendanceRecord-AttendanceSession" style="stroke:#181818;stroke-width:1;"/><line style="stroke:#181818;stroke-width:1;" x1="218.2984" x2="209.7027" y1="144.3364" y2="139.2263"/><line style="stroke:#181818;stroke-width:1;" x1="218.2984" x2="220.7973" y1="144.3364" y2="134.6537"/><line style="stroke:#181818;stroke-width:1;" x1="218.2984" x2="215.25" y1="144.3364" y2="136.94"/><line style="stroke:#181818;stroke-width:1;" x1="215.3622" x2="222.7587" y1="147.7097" y2="144.6614"/><line style="stroke:#181818;stroke-width:1;" x1="241.8237" x2="234.4275" y1="190.9275" y2="193.9763"/><line style="stroke:#181818;stroke-width:1;" x1="240.6804" x2="233.2841" y1="188.1539" y2="191.2027"/><line style="stroke:#181818;stroke-width:1;" x1="236.6012" x2="239.65" y1="188.7537" y2="196.15"/></g><!--link AttendanceRecord to User--><g class="link" data-entity-1="ent0007" data-entity-2="ent0002" data-link-type="crowfoot" data-source-line="64" id="lnk15"><path codeLine="64" d="M155.1227,144.2954 C147.5927,163.0754 143.59,176.51 139.78,196.48 C113.83,332.52 120.6273,486.0609 129.2373,583.7009" fill="none" id="AttendanceRecord-User" style="stroke:#181818;stroke-width:1;"/><line style="stroke:#181818;stroke-width:1;" x1="155.1227" x2="152.531" y1="144.2954" y2="134.6371"/><line style="stroke:#181818;stroke-width:1;" x1="155.1227" x2="163.669" y1="144.2954" y2="139.1029"/><line style="stroke:#181818;stroke-width:1;" x1="155.1227" x2="158.1" y1="144.2954" y2="136.87"/><line style="stroke:#181818;stroke-width:1;" x1="150.6657" x2="158.0911" y1="144.6631" y2="147.6403"/><line style="stroke:#181818;stroke-width:1;" x1="133.5732" x2="125.6041" y1="587.3341" y2="588.0368"/><line style="stroke:#181818;stroke-width:1;" x1="133.3097" x2="125.3406" y1="584.3457" y2="585.0484"/><line style="stroke:#181818;stroke-width:1;" x1="129.2373" x2="129.94" y1="583.7009" y2="591.67"/></g><?plantuml-src VLDDZzem4BtdLnZjXKXTQLM9IxLQARk45dNv48IgDykDXuq5IQWzQLaL_dljV1Y2a_NjpNkUUJFs33XiHGOa2fvVm-7H9v2Xm7To98-FP1XzkfjC0dryylJa3MhjyhiH7YsUrDYhacmKI9_yyuWH5XfGmNtoXMmsqx4EGih4NiCVmUhbMx0QVXwDV1q-CAN-vfBJXAd4fRV5Vaypbe9BoNnlek5yCzD8c-5mO19JtKcxieGteL0o57b6ioBz1V8gs-Z198ibC0HE6Megcix2THJCbjwvQMviSziM-yfTnRkDNmdYd8FZHRUI0ECqtr9-LTOM48go6CKVS_DviNWDW_d5w4jUI0NMP5p2ji4wrbcxvhgDVp1ZFJyka2RckevEvr7uDLnTRAqXDkEtlbI5sqactNuRxOqfEom45YVjxsRh1eYGSPR5i0QbsWvAx3ZeSzPHXP3ViXmZvGoP-JZXpwWqNAN6V0UPEqQ5UeGKHTdDvQ_f5JaUX7ntcOvkLX3hfR7Do19szDBJ8nRSUSAKoPsx0QLTB5IpQTgBMNHoFjtVdqxaiXTUzVCwYFhj6wRItKPDKizvhOQjnVs2c-lLU1hIkTMhD6d-0m00?></g></svg>